<svg width="38" height="49" viewBox="0 0 38 49" fill="none" xmlns="http://www.w3.org/2000/svg">
<path d="M35.74 18.62C35.74 20.8117 34.7228 23.7262 33.0021 27.0088C31.3059 30.2447 29.0273 33.6524 26.723 36.7758C24.4226 39.8937 22.1189 42.6985 20.3886 44.7253C19.6927 45.5405 19.0905 46.2286 18.62 46.7592C18.1495 46.2286 17.5473 45.5405 16.8514 44.7253C15.1211 42.6985 12.8174 39.8937 10.517 36.7758C8.21268 33.6524 5.93409 30.2447 4.23792 27.0088C2.51718 23.7262 1.5 20.8117 1.5 18.62C1.5 9.16489 9.16489 1.5 18.62 1.5C28.0751 1.5 35.74 9.16489 35.74 18.62Z" stroke="black" stroke-width="3"/>
<circle cx="18.62" cy="18.62" r="5.36" stroke="black" stroke-width="3"/>
</svg>
